<svg width="50" height="50" viewBox="0 0 50 50" fill="none" xmlns="http://www.w3.org/2000/svg">
  <path
    d="M35.4165 6.24996C35.4165 6.80249 35.197 7.3324 34.8063 7.7231C34.4156 8.1138 33.8857 8.33329 33.3331 8.33329C32.7806 8.33329 32.2507 8.1138 31.86 7.7231C31.4693 7.3324 31.2498 6.80249 31.2498 6.24996C31.2498 5.69742 31.4693 5.16752 31.86 4.77682C32.2507 4.38612 32.7806 4.16663 33.3331 4.16663C33.8857 4.16663 34.4156 4.38612 34.8063 4.77682C35.197 5.16752 35.4165 5.69742 35.4165 6.24996ZM16.6665 19.7916C16.6665 18.134 17.325 16.5443 18.4971 15.3722C19.6692 14.2001 21.2589 13.5416 22.9165 13.5416C24.9885 13.5416 26.9756 14.3647 28.4407 15.8299C29.9059 17.295 30.729 19.2821 30.729 21.3541C30.729 23.8405 29.7413 26.2251 27.9831 27.9832C26.2249 29.7414 23.8404 30.7291 21.354 30.7291C20.9396 30.7291 20.5421 30.8937 20.2491 31.1868C19.9561 31.4798 19.7915 31.8772 19.7915 32.2916C19.7915 32.706 19.9561 33.1035 20.2491 33.3965C20.5421 33.6895 20.9396 33.8541 21.354 33.8541C24.6692 33.8541 27.8486 32.5372 30.1928 30.193C32.537 27.8488 33.854 24.6693 33.854 21.3541C33.854 15.3125 28.9581 10.4166 22.9165 10.4166C20.4301 10.4166 18.0455 11.4043 16.2873 13.1625C14.5292 14.9207 13.5415 17.3052 13.5415 19.7916C13.5415 21.8636 14.3646 23.8508 15.8297 25.3159C17.2948 26.781 19.282 27.6041 21.354 27.6041C23.0116 27.6041 24.6013 26.9456 25.7734 25.7735C26.9455 24.6014 27.604 23.0117 27.604 21.3541C27.604 20.1109 27.1101 18.9186 26.231 18.0396C25.352 17.1605 24.1597 16.6666 22.9165 16.6666C22.0877 16.6666 21.2928 16.9959 20.7068 17.5819C20.1207 18.168 19.7915 18.9628 19.7915 19.7916C19.7915 20.206 19.9561 20.6035 20.2491 20.8965C20.5421 21.1895 20.9396 21.3541 21.354 21.3541C21.7684 21.3541 22.1658 21.1895 22.4588 20.8965C22.7519 20.6035 22.9165 20.206 22.9165 19.7916C23.3309 19.7916 23.7283 19.9562 24.0213 20.2493C24.3144 20.5423 24.479 20.9397 24.479 21.3541C24.479 22.1829 24.1497 22.9778 23.5637 23.5638C22.9776 24.1499 22.1828 24.4791 21.354 24.4791C20.1108 24.4791 18.9185 23.9853 18.0394 23.1062C17.1603 22.2271 16.6665 21.0348 16.6665 19.7916ZM19.0956 29.4291C18.5008 29.8983 18.0669 30.5412 17.8542 31.2684C17.6416 31.9956 17.6608 32.771 17.9092 33.4868C18.1576 34.2026 18.6228 34.8232 19.2401 35.2624C19.8575 35.7016 20.5963 35.9375 21.354 35.9375C24.5879 35.9385 27.7304 34.8646 30.2873 32.8847C32.8442 30.9048 34.6705 28.1311 35.479 25H38.5269C39.8644 25 41.1706 25.3958 42.2831 26.1375L47.2206 29.4291C47.3938 29.5418 47.5429 29.6878 47.6593 29.8585C47.7757 30.0293 47.8571 30.2214 47.8987 30.4238C47.9404 30.6262 47.9414 30.8348 47.9019 31.0377C47.8623 31.2405 47.783 31.4334 47.6683 31.6054C47.5537 31.7773 47.4061 31.9248 47.2341 32.0393C47.0621 32.1538 46.8691 32.2331 46.6663 32.2725C46.4634 32.3119 46.2548 32.3107 46.0524 32.2689C45.85 32.2271 45.658 32.1456 45.4873 32.0291L41.6665 29.4812V39.0625C41.6665 39.9516 41.4913 40.8321 41.1511 41.6535C40.8108 42.475 40.3121 43.2214 39.6833 43.8502C39.0546 44.4789 38.3082 44.9776 37.4867 45.3179C36.6652 45.6582 35.7848 45.8333 34.8956 45.8333H15.104C14.2148 45.8333 13.3344 45.6582 12.5129 45.3179C11.6914 44.9776 10.945 44.4789 10.3163 43.8502C9.68754 43.2214 9.18881 42.475 8.84854 41.6535C8.50827 40.8321 8.33314 39.9516 8.33314 39.0625V29.4812L4.51231 32.0291C4.34165 32.1456 4.14957 32.2271 3.9472 32.2689C3.74483 32.3107 3.53619 32.3119 3.33334 32.2725C3.1305 32.2331 2.93749 32.1538 2.76548 32.0393C2.59348 31.9248 2.44589 31.7773 2.33127 31.6054C2.21665 31.4334 2.13727 31.2405 2.09772 31.0377C2.05818 30.8348 2.05926 30.6262 2.1009 30.4238C2.14254 30.2214 2.22391 30.0293 2.3403 29.8585C2.45669 29.6878 2.60579 29.5418 2.77898 29.4291L7.71648 26.1375C8.8288 25.3958 10.1358 25 11.4727 25H12.9373C14.322 27.2342 16.537 28.8272 19.0956 29.4291ZM42.1873 10.4166C42.1873 10.0022 42.0227 9.6048 41.7297 9.31177C41.4366 9.01875 41.0392 8.85413 40.6248 8.85413C40.2104 8.85413 39.813 9.01875 39.52 9.31177C39.2269 9.6048 39.0623 10.0022 39.0623 10.4166V11.9791H37.4998C37.0854 11.9791 36.688 12.1437 36.395 12.4368C36.1019 12.7298 35.9373 13.1272 35.9373 13.5416C35.9373 13.956 36.1019 14.3535 36.395 14.6465C36.688 14.9395 37.0854 15.1041 37.4998 15.1041H39.0623V16.6666C39.0623 17.081 39.2269 17.4785 39.52 17.7715C39.813 18.0645 40.2104 18.2291 40.6248 18.2291C41.0392 18.2291 41.4366 18.0645 41.7297 17.7715C42.0227 17.4785 42.1873 17.081 42.1873 16.6666V15.1041H43.7498C44.1642 15.1041 44.5616 14.9395 44.8547 14.6465C45.1477 14.3535 45.3123 13.956 45.3123 13.5416C45.3123 13.1272 45.1477 12.7298 44.8547 12.4368C44.5616 12.1437 44.1642 11.9791 43.7498 11.9791H42.1873V10.4166Z"
    fill="#0098EA" />
</svg>